# xmcd CD database file
#
# Track frame offsets:
#	150
#	15846
#	42472
#	55437
#	75353
#	102077
#	130903
#	157109
#	177186
#	201036
#
# Disc length: 3260 seconds
#
# Revision: 0
# Processed by: cddbd v1.5.2PL0 Copyright (c) Steve Scherf et al.
# Submitted via: CDex 1.70beta2
#
DISCID=770cba0a
DTITLE=Erik Berglund - Creating Abundance
DYEAR=2004
DGENRE=New Age
TTITLE0=Angel of Hope
TTITLE1=Star Memories
TTITLE2=Angel Lullaby
TTITLE3=Angel Of Innocence
TTITLE4=Heart Reflection
TTITLE5=Cathedral Glow
TTITLE6=Angel Beauty
TTITLE7=Blue Lotus
TTITLE8=Spirit Of The Healing Waters
TTITLE9=Lotus Reflection
EXTD=YEAR: 2004
EXTT0=
EXTT1=
EXTT2=
EXTT3=
EXTT4=
EXTT5=
EXTT6=
EXTT7=
EXTT8=
EXTT9=
PLAYORDER=
